<svg viewBox="0 0 594 221" fill="none" xmlns="http://www.w3.org/2000/svg">
<rect fill="black"/>
<path d="M289.578 13.7031C289.578 15.6719 289.016 17.5 287.891 19.1875C285.547 22.6562 282.031 24.3906 277.344 24.3906H213.078C198.078 142.703 190.156 204.062 189.312 208.469C189.219 209.031 189.125 209.594 189.031 210.156C187.531 216.719 183.734 220 177.641 220C175.391 220 173.422 219.391 171.734 218.172C168.172 215.734 166.391 211.797 166.391 206.359C166.391 205.234 172.062 162.484 183.406 78.1094C187.25 49.7031 189.641 31.7969 190.578 24.3906H130.531C128.375 24.3906 126.312 24.0625 124.344 23.4062C119.375 21.7188 116.891 18.625 116.891 14.125C116.891 11.875 117.453 9.76562 118.578 7.79688C120.828 4.04688 124.344 2.17188 129.125 2.17188H277.625C278.938 2.17188 280.344 2.45312 281.844 3.01562C287 4.98438 289.578 8.54688 289.578 13.7031Z" fill="white"/>
<path d="M320.938 185.828C320.938 185.922 320.984 186.016 321.078 186.109C324.078 194.828 328.062 199.188 333.031 199.188C335.938 199 340.625 196.938 347.094 193C352.906 189.156 357.266 187.234 360.172 187.234C361.578 187.234 362.984 187.703 364.391 188.641C366.828 190.516 368.047 192.672 368.047 195.109C367.672 200.266 363.969 205.609 356.938 211.141C348.5 217.234 339.594 220.281 330.219 220.281C324.031 220.281 318.688 218.688 314.188 215.5C303.688 208 298.438 192.766 298.438 169.797C298.438 165.297 298.625 160.562 299 155.594C299.75 146.031 300.5 140.172 301.25 138.016C295.062 141.203 288.641 142.797 281.984 142.797C281.234 142.797 280.109 142.703 278.609 142.516C277.859 142.422 277.297 142.375 276.922 142.375C276.641 142.562 275.562 143.172 273.688 144.203C267.406 147.859 262.344 149.688 258.5 149.688C257.375 149.688 256.203 149.406 254.984 148.844C252.078 147.344 250.625 145.188 250.625 142.375C250.625 141.906 250.672 141.438 250.766 140.969C251.047 139.094 252.5 137.125 255.125 135.062C256.156 134.312 256.906 133.703 257.375 133.234C251.562 127.891 248.609 120.578 248.516 111.297C248.516 107.266 249.5 103.516 251.469 100.047C255.594 92.8281 262.156 89.2188 271.156 89.2188C275.75 89.2188 280.109 90.4375 284.234 92.875C290.984 97.0938 294.359 102.906 294.359 110.312C294.359 114.719 293.703 118.703 292.391 122.266C293.797 121.609 296.234 120.062 299.703 117.625C306.828 112.75 311.844 110.312 314.75 110.312C318.594 110.406 321.828 111.578 324.453 113.828C325.859 115.047 326.609 116.406 326.703 117.906C326.703 118.469 326.562 119.312 326.281 120.438C326 121.281 325.859 121.891 325.859 122.266C320.984 138.766 318.547 152.922 318.547 164.734C318.547 169.891 319.156 175.703 320.375 182.172C320.656 183.859 320.844 185.078 320.938 185.828ZM276.641 112.141C276.641 111.484 276.547 110.781 276.359 110.031C275.516 107.688 273.781 106.516 271.156 106.516C270.594 106.516 269.984 106.609 269.328 106.797C266.703 107.641 265.391 109.422 265.391 112.141C265.484 116.547 267.828 119.922 272.422 122.266C275.141 119.359 276.547 115.984 276.641 112.141Z" fill="white"/>
<path d="M351.031 175.844C351.031 172.656 351.219 169.281 351.594 165.719C353.562 149.594 358.625 135.297 366.781 122.828C376.719 107.641 388.672 100.047 402.641 100.047C408.641 100.047 413.891 101.219 418.391 103.562C420.266 101.312 422.844 100.141 426.125 100.047C428 100.047 429.172 100.188 429.641 100.469C433.672 101.781 435.688 105.766 435.688 112.422C435.688 115.141 435.219 121 434.281 130C431.375 156.625 429.922 173.172 429.922 179.641C429.922 183.953 430.812 187.984 432.594 191.734C435.219 197.359 438.688 200.172 443 200.172C443.844 200.172 444.734 200.078 445.672 199.891C448.484 199.328 452.516 197.172 457.766 193.422C462.922 189.672 467.047 187.797 470.141 187.797C471.359 187.797 472.625 188.219 473.938 189.062C476.656 190.938 478.016 193.422 478.016 196.516C477.734 201.391 474.031 206.453 466.906 211.703C458.375 217.703 449.328 220.703 439.766 220.703C427.953 220.609 419.234 214.656 413.609 202.844C412.297 204.438 410.797 206.031 409.109 207.625C399.828 216.344 390.406 220.703 380.844 220.703C374.844 220.703 369.641 219.156 365.234 216.062C355.766 209.125 351.031 195.719 351.031 175.844ZM412.906 129.578C412.906 129.578 413.234 126.391 413.891 120.016C411.828 118.984 409.672 118.469 407.422 118.469C405.734 118.469 404 118.703 402.219 119.172C393.5 121.609 386.141 129.672 380.141 143.359C374.797 155.641 372.125 167.969 372.125 180.344C372.125 180.812 372.125 181.281 372.125 181.75C372.406 193.188 375.312 198.906 380.844 198.906C383.75 198.812 387.312 197.219 391.531 194.125C395.844 191.031 398.984 188.125 400.953 185.406C402.172 183.625 403.812 178.422 405.875 169.797C409.625 153.766 411.969 140.359 412.906 129.578Z" fill="white"/>
<path d="M513.734 100.891C517.766 100.984 520.953 103.562 523.297 108.625L538.625 143.078L566.047 105.953C568.484 102.672 571.438 100.984 574.906 100.891C576.406 101.078 577.859 101.547 579.266 102.297C582.922 104.266 584.75 107.266 584.75 111.297C584.75 112.891 584.328 114.391 583.484 115.797C582.922 116.828 579.969 120.906 574.625 128.031C565.25 140.5 556.344 152.5 547.906 164.031L567.594 205.375C568.156 206.688 568.438 208.281 568.438 210.156C568.438 211.188 568.297 212.219 568.016 213.25C566.797 217.469 563.75 219.812 558.875 220.281C556.344 220.281 553.953 219.156 551.703 216.906C549.359 214.469 545.844 208.328 541.156 198.484C538.062 192.109 535.531 187.094 533.562 183.438L512.891 211.562C512.328 212.312 511.766 213.016 511.203 213.672C507.641 218.078 504.266 220.281 501.078 220.281C499.953 220.281 498.688 219.953 497.281 219.297C493.25 217.422 491.234 214.562 491.234 210.719C491.234 208 492.5 204.953 495.031 201.578L524.562 162.203L505.156 119.875C503.844 116.969 503.141 114.25 503.047 111.719C503.047 110.312 503.234 109 503.609 107.781C505.109 103.188 508.484 100.891 513.734 100.891Z" fill="white"/>
<path d="M75 126.415C80.2 126.415 84.4154 122.2 84.4154 117C84.4154 111.8 80.2 107.585 75 107.585C69.8 107.585 65.5846 111.8 65.5846 117C65.5846 122.2 69.8 126.415 75 126.415Z" fill="white"/>
<path d="M75 45C35.2357 45 3 77.2357 3 117C3 156.764 35.2357 189 75 189C114.764 189 147 156.764 147 117C147 77.2357 114.764 45 75 45ZM47.5475 62.907C55.7892 58.7171 65.1188 56.3542 75 56.3542C75.5803 56.3542 76.1555 56.362 76.7306 56.3776C77.6857 56.4036 78.3415 58.777 78.1983 61.6474L77.4645 76.4211C77.3213 79.2915 76.7124 81.5894 76.1034 81.5712C75.7365 81.5608 75.3695 81.5556 75 81.5556C69.8031 81.5556 64.8663 82.6746 60.4189 84.6837C57.7983 85.8677 54.6624 85.1625 53.1999 82.6876L45.6634 69.9438C44.2009 67.4689 44.9842 64.2108 47.5475 62.907ZM44.6016 90.0081L33.4686 80.27C31.3035 78.3781 31.0797 75.0809 33.159 73.0979C33.2084 73.051 33.2553 73.0068 33.3073 72.96C35.3944 70.9821 38.6656 71.3855 40.43 73.6522L49.5227 85.3213C51.2897 87.5879 51.7009 90.2371 50.5402 91.3432C49.377 92.4544 46.7668 91.9001 44.6016 90.0081ZM49.5227 117C49.5227 102.929 60.9289 91.5227 75 91.5227C89.0711 91.5227 100.477 102.929 100.477 117C100.477 131.071 89.0711 142.477 75 142.477C60.9289 142.477 49.5227 131.071 49.5227 117ZM102.333 171.153C94.1197 175.306 84.8318 177.646 75 177.646C74.3546 177.646 73.7118 177.635 73.0716 177.617C72.0073 177.583 71.2708 175.2 71.4269 172.329L72.2337 157.558C72.3924 154.688 73.0716 152.403 73.7587 152.426C74.1698 152.439 74.5836 152.447 75 152.447C79.7728 152.447 84.3217 151.505 88.4777 149.798C91.1374 148.705 94.3981 149.423 95.9648 151.833L104.035 164.246C105.601 166.653 104.899 169.854 102.333 171.153ZM116.513 161.212C114.52 163.086 111.295 162.646 109.479 160.418L100.136 148.949C98.3199 146.722 97.8567 144.14 99.0043 143.081C100.155 142.022 102.76 142.615 104.922 144.51L116.06 154.253C118.226 156.145 118.509 159.338 116.513 161.212Z" fill="white"/>
</svg>
